HIERARCHY
ROOT Hips
{
	OFFSET 0.000000 0.000000 0.000000
	CHANNELS 6 Xposition Yposition Zposition Xrotation Yrotation Zrotation
	JOINT LeftUpLeg_virtual
	{
		OFFSET 0.000000 0.000000 0.000000
		CHANNELS 3 Xrotation Yrotation Zrotation
		JOINT LeftUpLeg
		{
			OFFSET 15.427100 -6.655098 0.678600
			CHANNELS 3 Xrotation Yrotation Zrotation
			JOINT LeftLeg
			{
				OFFSET 4.081073 -39.591068 13.024000
				CHANNELS 3 Xrotation Yrotation Zrotation
				JOINT LeftFoot
				{
					OFFSET -4.081074 -37.707932 -15.979700
					CHANNELS 3 Xrotation Yrotation Zrotation
					JOINT LeftToeBase
					{
						OFFSET 5.346399 -15.068900 20.645000
						CHANNELS 3 Xrotation Yrotation Zrotation
						JOINT LeftToe_End
						{
							OFFSET 2.754700 0.931300 11.300900
							CHANNELS 3 Xrotation Yrotation Zrotation
							End Site
							{
								OFFSET 0 0 0
							}
						}
					}
				}
			}
		}
	}
	JOINT RightUpLeg_virtual
	{
		OFFSET 0.000000 0.000000 0.000000
		CHANNELS 3 Xrotation Yrotation Zrotation
		JOINT RightUpLeg
		{
			OFFSET -15.569500 -6.655098 0.678600
			CHANNELS 3 Xrotation Yrotation Zrotation
			JOINT RightLeg
			{
				OFFSET -4.081825 -39.591045 13.023800
				CHANNELS 3 Xrotation Yrotation Zrotation
				JOINT RightFoot
				{
					OFFSET 4.081824 -37.707954 -15.979600
					CHANNELS 3 Xrotation Yrotation Zrotation
					JOINT RightToeBase
					{
						OFFSET -5.346400 -15.068900 20.645000
						CHANNELS 3 Xrotation Yrotation Zrotation
						JOINT RightToe_End
						{
							OFFSET -2.754700 0.931300 11.300900
							CHANNELS 3 Xrotation Yrotation Zrotation
							End Site
							{
								OFFSET 0 0 0
							}
						}
					}
				}
			}
		}
	}
	JOINT Spine_virtual
	{
		OFFSET 0.000000 0.000000 0.000000
		CHANNELS 3 Xrotation Yrotation Zrotation
		JOINT Spine
		{
			OFFSET -0.279200 12.230698 -2.892100
			CHANNELS 3 Xrotation Yrotation Zrotation
			JOINT Spine1
			{
				OFFSET -0.232667 10.192268 -1.242267
				CHANNELS 3 Xrotation Yrotation Zrotation
				JOINT Spine1_split
				{
					OFFSET -0.232667 10.192268 -1.242267
					CHANNELS 3 Xrotation Yrotation Zrotation
					JOINT Spine2
					{
						OFFSET -0.232667 10.192268 -1.242267
						CHANNELS 3 Xrotation Yrotation Zrotation
						JOINT Neck_virtual
						{
							OFFSET 0.000000 0.000000 0.000000
							CHANNELS 3 Xrotation Yrotation Zrotation
							JOINT Neck
							{
								OFFSET -0.418800 17.814194 8.416900
								CHANNELS 3 Xrotation Yrotation Zrotation
								JOINT Head
								{
									OFFSET 0.000000 7.031097 3.806800
									CHANNELS 3 Xrotation Yrotation Zrotation
									JOINT HeadTop_End
									{
										OFFSET 0.000000 24.646606 12.978600
										CHANNELS 3 Xrotation Yrotation Zrotation
										End Site
										{
											OFFSET 0 0 0
										}
									}
								}
							}
						}
						JOINT LeftShoulder_virtual
						{
							OFFSET 0.000000 0.000000 0.000000
							CHANNELS 3 Xrotation Yrotation Zrotation
							JOINT LeftShoulder
							{
								OFFSET 8.476499 7.247704 -3.868750
								CHANNELS 3 Xrotation Yrotation Zrotation
								JOINT LeftShoulder_split
								{
									OFFSET 8.476499 7.247704 -3.868750
									CHANNELS 3 Xrotation Yrotation Zrotation
									JOINT LeftArm
									{
										OFFSET 9.308998 -2.777710 0.208600
										CHANNELS 3 Xrotation Yrotation Zrotation
										JOINT LeftForeArm
										{
											OFFSET 29.972298 0.000000 0.000000
											CHANNELS 3 Xrotation Yrotation Zrotation
											JOINT LeftHand
											{
												OFFSET 26.026505 0.000000 0.000000
												CHANNELS 3 Xrotation Yrotation Zrotation
												End Site
												{
													OFFSET 0 0 0
												}
											}
										}
									}
								}
							}
						}
						JOINT RightShoulder_virtual
						{
							OFFSET 0.000000 0.000000 0.000000
							CHANNELS 3 Xrotation Yrotation Zrotation
							JOINT RightShoulder
							{
								OFFSET -7.570500 7.247704 -3.868750
								CHANNELS 3 Xrotation Yrotation Zrotation
								JOINT RightShoulder_split
								{
									OFFSET -7.570500 7.247704 -3.868750
									CHANNELS 3 Xrotation Yrotation Zrotation
									JOINT RightArm
									{
										OFFSET -9.308998 -2.777710 0.208500
										CHANNELS 3 Xrotation Yrotation Zrotation
										JOINT RightForeArm
										{
											OFFSET -29.972300 0.000000 0.000000
											CHANNELS 3 Xrotation Yrotation Zrotation
											JOINT RightHand
											{
												OFFSET -26.026505 0.000000 0.000000
												CHANNELS 3 Xrotation Yrotation Zrotation
												End Site
												{
													OFFSET 0 0 0
												}
											}
										}
									}
								}
							}
						}
					}
				}
			}
		}
	}
}
MOTION
Frames: 10
Frame Time: 0.03333333
0.839099 94.305077 -2.525352 0.000000 0.000000 0.000000 -0.285116 -0.017857 -2.482502 -15.943140 12.050726 14.239034 21.067802 10.272177 0.266833 -3.447483 4.048064 -9.114712 -0.473463 -0.000553 -0.000008 0.000000 0.000000 0.000000 -0.285116 -0.017857 -2.482502 -3.096203 -3.915773 1.800955 16.103305 -2.534036 3.800155 -12.562612 -0.393012 -2.710907 -0.586281 -0.000183 -0.000007 0.000000 0.000000 0.000000 -0.285116 -0.017857 -2.482502 0.561179 -1.375345 0.480498 0.884704 -0.154384 2.637805 0.000000 0.000000 0.000000 0.000000 0.000000 0.000000 0.868038 0.313564 2.550323 1.242739 -0.362780 0.178330 1.579608 0.543348 -5.747759 0.000000 0.000000 0.000000 0.868038 0.313564 2.550323 0.000018 -0.000019 -0.312853 0.000000 0.000000 0.000000 3.284674 -25.851918 -73.291570 2.210821 -20.459234 0.701209 0.000000 0.000000 0.000000 0.868038 0.313564 2.550323 0.000036 -0.000016 0.312819 0.000000 0.000000 0.000000 5.327959 -3.221400 75.188737 -0.286936 18.990001 0.139590 0.000000 0.000000 0.000000 
0.933089 93.734390 -3.131813 0.000000 0.000000 0.000000 -1.535137 -3.483952 -2.559819 -15.654903 16.285599 16.038416 22.678105 11.417907 0.235390 -4.674645 1.805812 -9.716397 -0.473471 -0.000547 -0.000007 0.000000 0.000000 0.000000 -1.535137 -3.483952 -2.559819 -5.492892 -3.809357 1.565850 20.216086 -1.207538 3.743072 -10.917659 2.629361 -2.786618 -1.891330 0.005251 -0.242877 0.000000 0.000000 0.000000 -1.535137 -3.483952 -2.559819 2.025184 -1.481059 0.179041 1.261821 -0.310409 2.528742 0.000000 0.000000 0.000000 0.000000 0.000000 0.000000 1.249909 0.054709 2.460124 0.302906 0.013835 0.261823 1.321120 3.847866 -5.697075 0.000000 0.000000 0.000000 1.249909 0.054709 2.460124 1.986222 0.122394 -0.120703 0.000000 0.000000 0.000000 8.094364 -24.899067 -68.198517 1.185695 -21.611468 0.480244 0.000000 0.000000 0.000000 1.249909 0.054709 2.460124 0.253463 0.912355 -0.080289 0.000000 0.000000 0.000000 3.636565 1.596724 74.135215 -0.350376 17.651424 0.182513 0.000000 0.000000 0.000000 
1.172731 92.760834 -4.240326 0.000000 0.000000 0.000000 -2.867017 -9.220632 -3.246971 -17.878032 25.376740 19.784541 25.021595 7.106131 -0.070757 -6.219178 1.927669 -8.416023 -0.473484 -0.000532 -0.000014 0.000000 0.000000 0.000000 -2.867017 -9.220632 -3.246971 -10.078683 -3.747219 0.537695 25.829943 3.002980 4.325616 -8.876984 4.923284 0.220981 -2.918717 0.068967 -1.670655 0.000000 0.000000 0.000000 -2.867017 -9.220632 -3.246971 5.261516 -1.854611 -0.154894 2.096225 -0.673415 2.240413 0.000000 0.000000 0.000000 0.000000 0.000000 0.000000 2.092916 -0.513346 2.211526 -0.450335 0.594609 0.431790 -1.746708 10.004494 -5.052606 0.000000 0.000000 0.000000 2.092916 -0.513346 2.211526 4.117136 0.657556 1.005866 0.000000 0.000000 0.000000 15.953531 -29.708249 -62.779212 -1.655366 -26.434852 -0.428595 0.000000 0.000000 0.000000 2.092916 -0.513346 2.211526 0.913443 3.143517 -1.042105 0.000000 0.000000 0.000000 -2.332373 5.204006 73.608819 -0.324172 15.628847 0.222820 0.000000 0.000000 0.000000 
1.459674 92.017387 -5.111279 0.000000 0.000000 0.000000 -2.755984 -16.150956 -4.525951 -22.577979 33.825706 26.031063 27.295922 5.084941 -0.255876 -7.805222 0.818065 -8.210370 -0.473485 -0.000505 -0.000011 0.000000 0.000000 0.000000 -2.755984 -16.150956 -4.525951 -14.774910 -3.984431 0.069048 28.038277 7.673801 4.475319 -6.438042 8.240435 3.776883 -2.991496 0.074530 -1.729744 0.000000 0.000000 0.000000 -2.755984 -16.150956 -4.525951 8.523810 -2.509602 -0.316197 2.957235 -1.084278 1.834164 0.000000 0.000000 0.000000 0.000000 0.000000 0.000000 2.959116 -1.076858 1.840605 -0.965285 1.204225 0.645530 -6.422727 17.365864 -3.759209 0.000000 0.000000 0.000000 2.959116 -1.076858 1.840605 6.415020 1.672831 2.667598 0.000000 0.000000 0.000000 24.361743 -33.759310 -57.375577 -6.067111 -40.575292 -2.868205 0.000000 0.000000 0.000000 2.959116 -1.076858 1.840605 1.812761 5.937531 -2.243425 0.000000 0.000000 0.000000 -10.128202 7.510764 73.806013 -0.285828 15.294670 0.285204 0.000000 0.000000 0.000000 
1.770315 91.313065 -5.725468 0.000000 0.000000 0.000000 -1.825724 -22.587984 -6.044539 -28.059894 37.952537 32.260930 29.745505 3.247409 -0.410061 -9.219849 2.853491 -8.348810 -0.473508 -0.000513 -0.000007 0.000000 0.000000 0.000000 -1.825724 -22.587984 -6.044539 -18.962943 -4.437166 -0.650272 29.079923 8.285572 4.239700 -5.356096 13.162296 8.510516 -1.112216 0.005177 -0.462812 0.000000 0.000000 0.000000 -1.825724 -22.587984 -6.044539 9.931832 -3.570978 -0.406202 3.429638 -1.496041 1.388183 0.000000 0.000000 0.000000 0.000000 0.000000 0.000000 3.431724 -1.484890 1.407566 -1.293190 1.708823 0.861392 -9.657058 24.130355 -1.972002 0.000000 0.000000 0.000000 3.431724 -1.484890 1.407566 8.893602 3.198604 4.454273 0.000000 0.000000 0.000000 42.449339 -35.390311 -48.370000 -23.938558 -65.563696 -19.732710 0.000000 0.000000 0.000000 3.431724 -1.484890 1.407566 2.678476 8.564456 -3.310789 0.000000 0.000000 0.000000 -14.591330 8.516144 74.667191 -0.310550 18.940724 0.385679 0.000000 0.000000 0.000000 
2.117397 90.792694 -6.258438 0.000000 0.000000 0.000000 -1.036391 -28.300301 -7.565583 -33.311205 40.462707 38.145452 31.703573 1.096219 -0.538289 -10.267221 5.884670 -8.251150 -0.473486 -0.000530 -0.000005 0.000000 0.000000 0.000000 -1.036391 -28.300301 -7.565583 -21.152888 -4.956591 -1.749851 28.722414 7.063233 3.777598 -5.825958 14.717191 11.901148 -0.299981 -0.000173 0.000008 0.000000 0.000000 0.000000 -1.036391 -28.300301 -7.565583 10.397389 -4.534444 -0.404695 3.637078 -1.875071 0.980248 0.000000 0.000000 0.000000 0.000000 0.000000 0.000000 3.640926 -1.857328 1.010852 -1.437666 2.139206 1.084524 -11.560829 29.951588 -0.498631 0.000000 0.000000 0.000000 3.640926 -1.857328 1.010852 11.919288 5.346388 5.819003 0.000000 0.000000 0.000000 66.158025 -33.416198 -40.464718 -132.876372 -70.849211 -130.964301 0.000000 0.000000 0.000000 3.640926 -1.857328 1.010852 3.107976 10.330069 -3.802345 0.000000 0.000000 0.000000 -14.427514 7.308038 75.303785 -0.515242 29.971997 0.609908 0.000000 0.000000 0.000000 
2.577737 90.561302 -6.894039 0.000000 0.000000 0.000000 -0.670565 -33.044435 -8.493001 -37.201452 42.578156 42.485331 32.650705 -0.562908 -0.580251 -10.750900 8.469815 -7.986445 -0.473484 -0.000537 -0.000012 0.000000 0.000000 0.000000 -0.670565 -33.044435 -8.493001 -20.506957 -4.773304 -3.512816 28.365419 4.398094 3.249977 -9.421818 3.784965 8.624990 -0.120952 -0.000268 0.000001 0.000000 0.000000 0.000000 -0.670565 -33.044435 -8.493001 10.765331 -5.306318 -0.281470 3.684940 -2.201694 0.688264 0.000000 0.000000 0.000000 0.000000 0.000000 0.000000 3.691411 -2.178573 0.726472 -1.492637 2.480419 1.322217 -12.174904 34.727434 -0.580061 0.000000 0.000000 0.000000 3.691411 -2.178573 0.726472 15.243133 8.629491 7.416197 0.000000 0.000000 0.000000 81.584472 -39.178201 -35.945056 -147.371836 -55.990271 -147.750939 0.000000 0.000000 0.000000 3.691411 -2.178573 0.726472 2.519582 11.424382 -2.583014 0.000000 0.000000 0.000000 -9.865782 5.223055 73.224054 -0.979035 46.381117 0.994941 0.000000 0.000000 0.000000 
2.988843 90.104996 -7.439301 0.000000 0.000000 0.000000 -0.966465 -36.250324 -8.272413 -38.820524 44.701956 44.247140 33.357568 -1.933687 -0.575349 -11.212711 10.488409 -7.552640 -0.473492 -0.000522 -0.000016 0.000000 0.000000 0.000000 -0.966465 -36.250324 -8.272413 -19.553785 -5.474702 -7.566802 29.772115 -2.486938 2.489963 -7.419053 0.056025 3.080758 -0.041180 -0.000191 -0.000006 0.000000 0.000000 0.000000 -0.966465 -36.250324 -8.272413 11.605790 -5.920918 -0.041563 3.576253 -2.259481 0.532545 0.000000 0.000000 0.000000 0.000000 0.000000 0.000000 3.579383 -2.240072 0.572677 -1.607758 2.726098 1.624055 -10.972371 38.148533 -3.852879 0.000000 0.000000 0.000000 3.579383 -2.240072 0.572677 17.855014 12.334038 9.141984 0.000000 0.000000 0.000000 86.442724 -44.354466 -34.884057 -146.600640 -50.700221 -148.300523 0.000000 0.000000 0.000000 3.579383 -2.240072 0.572677 1.344953 12.335754 -0.406559 0.000000 0.000000 0.000000 -3.308586 1.930123 68.444335 -1.844216 62.289112 1.733804 0.000000 0.000000 0.000000 
3.231045 88.981911 -8.012203 0.000000 0.000000 0.000000 -1.069404 -38.804542 -7.108186 -39.203780 45.750697 44.172073 35.115147 -2.793685 -0.531799 -12.123826 12.925891 -7.382238 -0.473508 -0.000525 -0.000009 0.000000 0.000000 0.000000 -1.069404 -38.804542 -7.108186 -20.445428 -7.929802 -12.136952 33.957228 -2.269332 2.290193 -4.829250 -0.780454 -1.059005 -1.320381 -0.062495 2.790339 0.000000 0.000000 0.000000 -1.069404 -38.804542 -7.108186 12.215489 -6.020464 -0.181198 3.298428 -1.932373 0.432077 0.000000 0.000000 0.000000 0.000000 0.000000 0.000000 3.300941 -1.915331 0.465415 -1.514669 2.892079 1.935782 -9.423463 40.499491 -7.823431 0.000000 0.000000 0.000000 3.300941 -1.915331 0.465415 19.012501 14.896316 9.517626 0.000000 0.000000 0.000000 85.362714 -45.008105 -37.051205 -144.327785 -49.372009 -146.639107 0.000000 0.000000 0.000000 3.300941 -1.915331 0.465415 0.761282 12.938124 0.299571 0.000000 0.000000 0.000000 2.685660 -0.482865 64.837702 -3.036329 71.745960 2.880408 0.000000 0.000000 0.000000 
3.540170 87.809158 -8.372047 0.000000 0.000000 0.000000 -1.922323 -41.976505 -6.224292 -37.471077 46.329918 42.703401 37.180046 -2.984400 -0.436577 -13.115485 16.233007 -7.365998 -0.728943 -0.000559 -0.000010 0.000000 0.000000 0.000000 -1.922323 -41.976505 -6.224292 -21.658791 -11.773533 -17.931683 40.114049 -1.732561 2.022402 -5.032306 0.462589 -3.488286 -2.615583 -0.246208 5.464709 0.000000 0.000000 0.000000 -1.922323 -41.976505 -6.224292 11.746737 -4.792115 -1.737804 3.363460 -1.671053 0.400495 0.000000 0.000000 0.000000 0.000000 0.000000 0.000000 3.389382 -1.628856 0.430693 -1.356467 2.642207 2.078418 -7.363346 40.859151 -9.204412 0.000000 0.000000 0.000000 3.389382 -1.628856 0.430693 18.823658 15.624864 7.688724 0.000000 0.000000 0.000000 79.671500 -42.122610 -42.045091 -145.256021 -53.048611 -146.112732 0.000000 0.000000 0.000000 3.389382 -1.628856 0.430693 0.589615 13.219128 0.298459 0.000000 0.000000 0.000000 7.758474 1.015130 60.502786 -3.644336 73.798814 3.516869 0.000000 0.000000 0.000000 
